G04 Generated by Ultiboard 14.1 *
%FSLAX34Y34*%
%MOMM*%

%ADD10C,0.0001*%
%ADD11C,0.0100*%
%ADD12C,0.1270*%


G04 ColorRGB 00FFFF for the following layer *
%LNBoard Outline*%
%LPD*%
G54D10*
G54D11*
X0Y508000D02*
X25400Y533400D01*
X1168400Y533400D01*
X0Y508000D02*
X0Y25400D01*
X25400Y0D01*
X3276600Y0D02*
X3302000Y25400D01*
X25400Y0D02*
X3276600Y0D01*
X3302000Y508000D02*
X3276600Y533400D01*
X2082800Y533400D02*
X3276600Y533400D01*
X3302000Y25400D02*
X3302000Y508000D01*
X1346200Y711200D02*
X1905000Y711200D01*
X2082800Y533400D02*
X1905000Y711200D01*
X1168400Y533400D02*
X1346200Y711200D01*
G54D12*
X-2540Y-2540D02*
X-2540Y69088D01*
X-2540Y-2540D02*
X328168Y-2540D01*
X3304540Y-2540D02*
X2973832Y-2540D01*
X3304540Y-2540D02*
X3304540Y69088D01*
X3304540Y713740D02*
X3304540Y642112D01*
X3304540Y713740D02*
X2973832Y713740D01*
X-2540Y713740D02*
X328168Y713740D01*
X-2540Y713740D02*
X-2540Y642112D01*
X-52540Y-2540D02*
X-152540Y-2540D01*
X-102540Y-52540D02*
X-102540Y47460D01*
X-140040Y-2540D02*
G75*
D01*
G02X-140040Y-2540I37500J0*
G01*
X3354540Y-2540D02*
X3454540Y-2540D01*
X3404540Y-52540D02*
X3404540Y47460D01*
X3367040Y-2540D02*
G75*
D01*
G02X3367040Y-2540I37500J0*
G01*
X3392040Y-2540D02*
G75*
D01*
G02X3392040Y-2540I12500J0*
G01*
X-52540Y713740D02*
X-152540Y713740D01*
X-102540Y663740D02*
X-102540Y763740D01*
X-140040Y713740D02*
G75*
D01*
G02X-140040Y713740I37500J0*
G01*
X-127540Y713740D02*
G75*
D01*
G02X-127540Y713740I25000J0*
G01*
X-115040Y713740D02*
G75*
D01*
G02X-115040Y713740I12500J0*
G01*

M02*
