G04 Generated by Ultiboard 14.1 *
%FSLAX34Y34*%
%MOMM*%

%ADD10C,0.0001*%
%ADD11C,0.1270*%
%ADD12C,0.5000*%
%ADD13C,0.7500*%
%ADD14C,4.8000*%
%ADD15C,1.5000*%
%ADD16R,1.4500X1.0500*%
%ADD17C,1.6088*%
%ADD18R,0.5291X0.5291*%
%ADD19C,0.9949*%
%ADD20C,1.2700*%


G04 ColorRGB FF00CC for the following layer *
%LNSolder Mask Top*%
%LPD*%
G54D10*
G54D11*
X-2540Y-2540D02*
X-2540Y69088D01*
X-2540Y-2540D02*
X328168Y-2540D01*
X3304540Y-2540D02*
X2973832Y-2540D01*
X3304540Y-2540D02*
X3304540Y69088D01*
X3304540Y713740D02*
X3304540Y642112D01*
X3304540Y713740D02*
X2973832Y713740D01*
X-2540Y713740D02*
X328168Y713740D01*
X-2540Y713740D02*
X-2540Y642112D01*
X-52540Y-2540D02*
X-152540Y-2540D01*
X-102540Y-52540D02*
X-102540Y47460D01*
X-140040Y-2540D02*
G75*
D01*
G02X-140040Y-2540I37500J0*
G01*
X3354540Y-2540D02*
X3454540Y-2540D01*
X3404540Y-52540D02*
X3404540Y47460D01*
X3367040Y-2540D02*
G75*
D01*
G02X3367040Y-2540I37500J0*
G01*
X3392040Y-2540D02*
G75*
D01*
G02X3392040Y-2540I12500J0*
G01*
X-52540Y713740D02*
X-152540Y713740D01*
X-102540Y663740D02*
X-102540Y763740D01*
X-140040Y713740D02*
G75*
D01*
G02X-140040Y713740I37500J0*
G01*
X-127540Y713740D02*
G75*
D01*
G02X-127540Y713740I25000J0*
G01*
X-115040Y713740D02*
G75*
D01*
G02X-115040Y713740I12500J0*
G01*
G54D12*
X104140Y60960D03*
X307340Y60960D03*
X510540Y60960D03*
X1097280Y60960D03*
X1628140Y60960D03*
X2011680Y60960D03*
X2621280Y60960D03*
X3154680Y60960D03*
X116840Y71120D03*
X198120Y81280D03*
X320040Y71120D03*
X401320Y81280D03*
X523240Y71120D03*
X604520Y81280D03*
X1028700Y81280D03*
X1043940Y71120D03*
X1559560Y81280D03*
X1574800Y71120D03*
X1943100Y81280D03*
X1958340Y71120D03*
X2552700Y81280D03*
X2567940Y71120D03*
X3086100Y81280D03*
X3101340Y71120D03*
X172720Y101600D03*
X185420Y91440D03*
X375920Y101600D03*
X388620Y91440D03*
X579120Y101600D03*
X591820Y91440D03*
X1112520Y101600D03*
X1125220Y91440D03*
X1643380Y101600D03*
X1656080Y91440D03*
X2026920Y101600D03*
X2039620Y91440D03*
X2636520Y101600D03*
X2649220Y91440D03*
X3169920Y101600D03*
X3182620Y91440D03*
X144780Y121920D03*
X160020Y111760D03*
X347980Y121920D03*
X363220Y111760D03*
X551180Y121920D03*
X566420Y111760D03*
X1061720Y121920D03*
X1079500Y111760D03*
X1592580Y121920D03*
X1610360Y111760D03*
X1976120Y121920D03*
X1993900Y111760D03*
X2585720Y121920D03*
X2603500Y111760D03*
X3119120Y121920D03*
X3136900Y111760D03*
X114300Y375920D03*
X132080Y386080D03*
X317500Y375920D03*
X335280Y386080D03*
X520700Y375920D03*
X538480Y386080D03*
X886460Y375920D03*
X934720Y386080D03*
X1417320Y375920D03*
X1465580Y386080D03*
X1800860Y375920D03*
X1849120Y386080D03*
X2458720Y386080D03*
X2992120Y386080D03*
X165100Y406400D03*
X147320Y396240D03*
X350520Y396240D03*
X368300Y406400D03*
X553720Y396240D03*
X571500Y406400D03*
X866140Y406400D03*
X850900Y396240D03*
X1381760Y396240D03*
X1397000Y406400D03*
X1765300Y396240D03*
X1780540Y406400D03*
X2374900Y396240D03*
X2390140Y406400D03*
X2923540Y406400D03*
X2908300Y396240D03*
X177800Y416560D03*
X193040Y426720D03*
X381000Y416560D03*
X396240Y426720D03*
X584200Y416560D03*
X599440Y426720D03*
X901700Y416560D03*
X916940Y426720D03*
X1432560Y416560D03*
X1447800Y426720D03*
X1816100Y416560D03*
X1831340Y426720D03*
X2425700Y416560D03*
X2440940Y426720D03*
X2959100Y416560D03*
X2974340Y426720D03*
X210820Y436880D03*
X297180Y447040D03*
X414020Y436880D03*
X500380Y447040D03*
X617220Y436880D03*
X838200Y447040D03*
X949960Y436880D03*
X1369060Y447040D03*
X1480820Y436880D03*
X1752600Y447040D03*
X1864360Y436880D03*
X2362200Y447040D03*
X2473960Y436880D03*
X2895600Y447040D03*
X3007360Y436880D03*
X1569720Y375920D03*
X1595120Y386080D03*
X1620520Y396240D03*
X1645920Y406400D03*
X1671320Y416560D03*
X1242060Y137160D03*
X1254760Y137160D03*
X1267460Y137160D03*
X1280160Y137160D03*
X1292860Y137160D03*
X1305560Y137160D03*
X1318260Y137160D03*
X1242060Y91440D03*
X1254760Y81280D03*
X1267460Y71120D03*
X1280160Y60960D03*
X1305560Y111760D03*
X1318260Y101600D03*
G54D13*
X269240Y459740D03*
X706120Y490220D03*
X1221740Y505460D03*
X485140Y474980D03*
G54D14*
X50800Y482600D03*
X50800Y50800D03*
X3251200Y482600D03*
X3251200Y50800D03*
G54D15*
X3063240Y147320D03*
X3215640Y147320D03*
X3063240Y172720D03*
X3215640Y172720D03*
X3063240Y198120D03*
X3215640Y198120D03*
X3063240Y223520D03*
X3215640Y223520D03*
X3063240Y248920D03*
X3215640Y248920D03*
X3063240Y274320D03*
X3215640Y274320D03*
X3063240Y299720D03*
X3215640Y299720D03*
X3063240Y325120D03*
X3215640Y325120D03*
X3063240Y350520D03*
X3215640Y350520D03*
X2872740Y147320D03*
X3025140Y147320D03*
X2872740Y172720D03*
X3025140Y172720D03*
X2872740Y198120D03*
X3025140Y198120D03*
X2872740Y223520D03*
X3025140Y223520D03*
X2872740Y248920D03*
X3025140Y248920D03*
X2872740Y274320D03*
X3025140Y274320D03*
X2872740Y299720D03*
X3025140Y299720D03*
X2872740Y325120D03*
X3025140Y325120D03*
X2872740Y350520D03*
X3025140Y350520D03*
X2529840Y147320D03*
X2682240Y147320D03*
X2529840Y172720D03*
X2682240Y172720D03*
X2529840Y198120D03*
X2682240Y198120D03*
X2529840Y223520D03*
X2682240Y223520D03*
X2529840Y248920D03*
X2682240Y248920D03*
X2529840Y274320D03*
X2682240Y274320D03*
X2529840Y299720D03*
X2682240Y299720D03*
X2529840Y325120D03*
X2682240Y325120D03*
X2529840Y350520D03*
X2682240Y350520D03*
X2339340Y147320D03*
X2491740Y147320D03*
X2339340Y172720D03*
X2491740Y172720D03*
X2339340Y198120D03*
X2491740Y198120D03*
X2339340Y223520D03*
X2491740Y223520D03*
X2339340Y248920D03*
X2491740Y248920D03*
X2339340Y274320D03*
X2491740Y274320D03*
X2339340Y299720D03*
X2491740Y299720D03*
X2339340Y325120D03*
X2491740Y325120D03*
X2339340Y350520D03*
X2491740Y350520D03*
X1920240Y147320D03*
X2072640Y147320D03*
X1920240Y172720D03*
X2072640Y172720D03*
X1920240Y198120D03*
X2072640Y198120D03*
X1920240Y223520D03*
X2072640Y223520D03*
X1920240Y248920D03*
X2072640Y248920D03*
X1920240Y274320D03*
X2072640Y274320D03*
X1920240Y299720D03*
X2072640Y299720D03*
X1920240Y325120D03*
X2072640Y325120D03*
X1920240Y350520D03*
X2072640Y350520D03*
X1348740Y147320D03*
X1501140Y147320D03*
X1348740Y172720D03*
X1501140Y172720D03*
X1348740Y198120D03*
X1501140Y198120D03*
X1348740Y223520D03*
X1501140Y223520D03*
X1348740Y248920D03*
X1501140Y248920D03*
X1348740Y274320D03*
X1501140Y274320D03*
X1348740Y299720D03*
X1501140Y299720D03*
X1348740Y325120D03*
X1501140Y325120D03*
X1348740Y350520D03*
X1501140Y350520D03*
X1005840Y147320D03*
X1158240Y147320D03*
X1005840Y172720D03*
X1158240Y172720D03*
X1005840Y198120D03*
X1158240Y198120D03*
X1005840Y223520D03*
X1158240Y223520D03*
X1005840Y248920D03*
X1158240Y248920D03*
X1005840Y274320D03*
X1158240Y274320D03*
X1005840Y299720D03*
X1158240Y299720D03*
X1005840Y325120D03*
X1158240Y325120D03*
X1005840Y350520D03*
X1158240Y350520D03*
X815340Y147320D03*
X967740Y147320D03*
X815340Y172720D03*
X967740Y172720D03*
X815340Y198120D03*
X967740Y198120D03*
X815340Y223520D03*
X967740Y223520D03*
X815340Y248920D03*
X967740Y248920D03*
X815340Y274320D03*
X967740Y274320D03*
X815340Y299720D03*
X967740Y299720D03*
X815340Y325120D03*
X967740Y325120D03*
X815340Y350520D03*
X967740Y350520D03*
X1729740Y147320D03*
X1882140Y147320D03*
X1729740Y172720D03*
X1882140Y172720D03*
X1729740Y198120D03*
X1882140Y198120D03*
X1729740Y223520D03*
X1882140Y223520D03*
X1729740Y248920D03*
X1882140Y248920D03*
X1729740Y274320D03*
X1882140Y274320D03*
X1729740Y299720D03*
X1882140Y299720D03*
X1729740Y325120D03*
X1882140Y325120D03*
X1729740Y350520D03*
X1882140Y350520D03*
X1539240Y147320D03*
X1691640Y147320D03*
X1539240Y172720D03*
X1691640Y172720D03*
X1539240Y198120D03*
X1691640Y198120D03*
X1539240Y223520D03*
X1691640Y223520D03*
X1539240Y248920D03*
X1691640Y248920D03*
X1539240Y274320D03*
X1691640Y274320D03*
X1539240Y299720D03*
X1691640Y299720D03*
X1539240Y325120D03*
X1691640Y325120D03*
X1539240Y350520D03*
X1691640Y350520D03*
X485140Y147330D03*
X637540Y147330D03*
X485140Y172730D03*
X637540Y172730D03*
X485140Y198130D03*
X637540Y198130D03*
X485140Y223530D03*
X637540Y223530D03*
X485140Y248930D03*
X637540Y248930D03*
X485140Y274330D03*
X637540Y274330D03*
X485140Y299730D03*
X637540Y299730D03*
X485140Y325130D03*
X637540Y325130D03*
X485140Y350530D03*
X637540Y350530D03*
X281940Y147330D03*
X434340Y147330D03*
X281940Y172730D03*
X434340Y172730D03*
X281940Y198130D03*
X434340Y198130D03*
X281940Y223530D03*
X434340Y223530D03*
X281940Y248930D03*
X434340Y248930D03*
X281940Y274330D03*
X434340Y274330D03*
X281940Y299730D03*
X434340Y299730D03*
X281940Y325130D03*
X434340Y325130D03*
X281940Y350530D03*
X434340Y350530D03*
X78740Y147330D03*
X231140Y147330D03*
X78740Y172730D03*
X231140Y172730D03*
X78740Y198130D03*
X231140Y198130D03*
X78740Y223530D03*
X231140Y223530D03*
X78740Y248930D03*
X231140Y248930D03*
X78740Y274330D03*
X231140Y274330D03*
X78740Y299730D03*
X231140Y299730D03*
X78740Y325130D03*
X231140Y325130D03*
X78740Y350530D03*
X231140Y350530D03*
X1645920Y660400D03*
X1823720Y660400D03*
X1823720Y482600D03*
X1747520Y482600D03*
X1722120Y482600D03*
X1696720Y482600D03*
X1671320Y482600D03*
X1645920Y482600D03*
X1620520Y482600D03*
X1595120Y482600D03*
X1696720Y660400D03*
X1544320Y482600D03*
X1518920Y482600D03*
X1493520Y482600D03*
X1493520Y660400D03*
X1518920Y660400D03*
X1544320Y660400D03*
X1569720Y660400D03*
X1798320Y660400D03*
X1772920Y660400D03*
X1747520Y660400D03*
X1722120Y660400D03*
X1671320Y660400D03*
X1620520Y660400D03*
X1772920Y482600D03*
X1798320Y482600D03*
X1569720Y482600D03*
X1595120Y660400D03*
G54D16*
X2141220Y322690D03*
X2141220Y304690D03*
X2141220Y185310D03*
X2141220Y203310D03*
X2730500Y304690D03*
X2730500Y322690D03*
X2733040Y173880D03*
X2733040Y191880D03*
G54D17*
X1925320Y571500D03*
X1925320Y622300D03*
X1925320Y596900D03*
G54D18*
X1925320Y546100D03*
G54D19*
X1922675Y543455D02*
X1927965Y543455D01*
X1927965Y548745D01*
X1922675Y548745D01*
X1922675Y543455D01*D02*
G54D20*
X2209800Y304800D03*
X2184400Y304800D03*
X2209800Y203200D03*
X2184400Y203200D03*
X2791460Y299720D03*
X2766060Y299720D03*
X2791460Y198120D03*
X2766060Y198120D03*

M02*
