M48
METRIC,TZ
VER,1
FMAT,2
DETECT,ON
ATC,ON
T1C0.2500
T2C0.4000
T3C4.8000
T4C1.0000
T5C0.8890
T6C0.9949
%
T1
X104140Y60960
X307340
X510540
X1097280
X1628140
X2011680
X2621280
X3154680
X116840Y71120
X198120Y81280
X320040Y71120
X401320Y81280
X523240Y71120
X604520Y81280
X1028700
X1043940Y71120
X1559560Y81280
X1574800Y71120
X1943100Y81280
X1958340Y71120
X2552700Y81280
X2567940Y71120
X3086100Y81280
X3101340Y71120
X172720Y101600
X185420Y91440
X375920Y101600
X388620Y91440
X579120Y101600
X591820Y91440
X1112520Y101600
X1125220Y91440
X1643380Y101600
X1656080Y91440
X2026920Y101600
X2039620Y91440
X2636520Y101600
X2649220Y91440
X3169920Y101600
X3182620Y91440
X144780Y121920
X160020Y111760
X347980Y121920
X363220Y111760
X551180Y121920
X566420Y111760
X1061720Y121920
X1079500Y111760
X1592580Y121920
X1610360Y111760
X1976120Y121920
X1993900Y111760
X2585720Y121920
X2603500Y111760
X3119120Y121920
X3136900Y111760
X114300Y375920
X132080Y386080
X317500Y375920
X335280Y386080
X520700Y375920
X538480Y386080
X886460Y375920
X934720Y386080
X1417320Y375920
X1465580Y386080
X1800860Y375920
X1849120Y386080
X2458720
X2992120
X165100Y406400
X147320Y396240
X350520
X368300Y406400
X553720Y396240
X571500Y406400
X866140
X850900Y396240
X1381760
X1397000Y406400
X1765300Y396240
X1780540Y406400
X2374900Y396240
X2390140Y406400
X2923540
X2908300Y396240
X177800Y416560
X193040Y426720
X381000Y416560
X396240Y426720
X584200Y416560
X599440Y426720
X901700Y416560
X916940Y426720
X1432560Y416560
X1447800Y426720
X1816100Y416560
X1831340Y426720
X2425700Y416560
X2440940Y426720
X2959100Y416560
X2974340Y426720
X210820Y436880
X297180Y447040
X414020Y436880
X500380Y447040
X617220Y436880
X838200Y447040
X949960Y436880
X1369060Y447040
X1480820Y436880
X1752600Y447040
X1864360Y436880
X2362200Y447040
X2473960Y436880
X2895600Y447040
X3007360Y436880
X1569720Y375920
X1595120Y386080
X1620520Y396240
X1645920Y406400
X1671320Y416560
X1242060Y137160
X1254760
X1267460
X1280160
X1292860
X1305560
X1318260
X1242060Y91440
X1254760Y81280
X1267460Y71120
X1280160Y60960
X1305560Y111760
X1318260Y101600
T2
X269240Y459740
X706120Y490220
X1221740Y505460
X485140Y474980
T3
X50800Y482600
Y50800
X3251200Y482600
Y50800
T4
X3063240Y147320
X3215640
X3063240Y172720
X3215640
X3063240Y198120
X3215640
X3063240Y223520
X3215640
X3063240Y248920
X3215640
X3063240Y274320
X3215640
X3063240Y299720
X3215640
X3063240Y325120
X3215640
X3063240Y350520
X3215640
X2872740Y147320
X3025140
X2872740Y172720
X3025140
X2872740Y198120
X3025140
X2872740Y223520
X3025140
X2872740Y248920
X3025140
X2872740Y274320
X3025140
X2872740Y299720
X3025140
X2872740Y325120
X3025140
X2872740Y350520
X3025140
X2529840Y147320
X2682240
X2529840Y172720
X2682240
X2529840Y198120
X2682240
X2529840Y223520
X2682240
X2529840Y248920
X2682240
X2529840Y274320
X2682240
X2529840Y299720
X2682240
X2529840Y325120
X2682240
X2529840Y350520
X2682240
X2339340Y147320
X2491740
X2339340Y172720
X2491740
X2339340Y198120
X2491740
X2339340Y223520
X2491740
X2339340Y248920
X2491740
X2339340Y274320
X2491740
X2339340Y299720
X2491740
X2339340Y325120
X2491740
X2339340Y350520
X2491740
X1920240Y147320
X2072640
X1920240Y172720
X2072640
X1920240Y198120
X2072640
X1920240Y223520
X2072640
X1920240Y248920
X2072640
X1920240Y274320
X2072640
X1920240Y299720
X2072640
X1920240Y325120
X2072640
X1920240Y350520
X2072640
X1348740Y147320
X1501140
X1348740Y172720
X1501140
X1348740Y198120
X1501140
X1348740Y223520
X1501140
X1348740Y248920
X1501140
X1348740Y274320
X1501140
X1348740Y299720
X1501140
X1348740Y325120
X1501140
X1348740Y350520
X1501140
X1005840Y147320
X1158240
X1005840Y172720
X1158240
X1005840Y198120
X1158240
X1005840Y223520
X1158240
X1005840Y248920
X1158240
X1005840Y274320
X1158240
X1005840Y299720
X1158240
X1005840Y325120
X1158240
X1005840Y350520
X1158240
X815340Y147320
X967740
X815340Y172720
X967740
X815340Y198120
X967740
X815340Y223520
X967740
X815340Y248920
X967740
X815340Y274320
X967740
X815340Y299720
X967740
X815340Y325120
X967740
X815340Y350520
X967740
X1729740Y147320
X1882140
X1729740Y172720
X1882140
X1729740Y198120
X1882140
X1729740Y223520
X1882140
X1729740Y248920
X1882140
X1729740Y274320
X1882140
X1729740Y299720
X1882140
X1729740Y325120
X1882140
X1729740Y350520
X1882140
X1539240Y147320
X1691640
X1539240Y172720
X1691640
X1539240Y198120
X1691640
X1539240Y223520
X1691640
X1539240Y248920
X1691640
X1539240Y274320
X1691640
X1539240Y299720
X1691640
X1539240Y325120
X1691640
X1539240Y350520
X1691640
X485140Y147330
X637540
X485140Y172730
X637540
X485140Y198130
X637540
X485140Y223530
X637540
X485140Y248930
X637540
X485140Y274330
X637540
X485140Y299730
X637540
X485140Y325130
X637540
X485140Y350530
X637540
X281940Y147330
X434340
X281940Y172730
X434340
X281940Y198130
X434340
X281940Y223530
X434340
X281940Y248930
X434340
X281940Y274330
X434340
X281940Y299730
X434340
X281940Y325130
X434340
X281940Y350530
X434340
X78740Y147330
X231140
X78740Y172730
X231140
X78740Y198130
X231140
X78740Y223530
X231140
X78740Y248930
X231140
X78740Y274330
X231140
X78740Y299730
X231140
X78740Y325130
X231140
X78740Y350530
X231140
X1645920Y660400
X1823720
Y482600
X1747520
X1722120
X1696720
X1671320
X1645920
X1620520
X1595120
X1696720Y660400
X1544320Y482600
X1518920
X1493520
Y660400
X1518920
X1544320
X1569720
X1798320
X1772920
X1747520
X1722120
X1671320
X1620520
X1772920Y482600
X1798320
X1569720
X1595120Y660400
T5
X1925320Y571500
Y622300
Y596900
X2209800Y304800
X2184400
X2209800Y203200
X2184400
X2791460Y299720
X2766060
X2791460Y198120
X2766060
T6
X1925320Y546100
M30
